<svg id="Layer_1" data-name="Layer 1" xmlns="http://www.w3.org/2000/svg" xmlns:xlink="http://www.w3.org/1999/xlink" viewBox="0 0 64 64"><defs><style>.cls-1{fill:#eee;}.cls-2{clip-path:url(#clip-path);}.cls-3{fill:#fff;}.cls-10,.cls-11,.cls-16,.cls-3,.cls-5,.cls-6,.cls-7,.cls-9{fill-rule:evenodd;}.cls-11,.cls-4{fill:#dcdbdc;}.cls-5,.cls-8{fill:#e6a876;}.cls-6{fill:#b78054;}.cls-14,.cls-7{fill:#4b1f0d;}.cls-9{fill:#db5542;}.cls-10{fill:#e7e9ea;}.cls-12{fill:#2b2b2b;}.cls-13{fill:#b68053;}.cls-15{fill:#4a4848;}.cls-16{fill:#22455c;}</style><clipPath id="clip-path"><circle class="cls-1" cx="32" cy="32" r="32"/></clipPath></defs><title>ic_doc_sm</title><circle class="cls-1" cx="32" cy="32" r="32"/><g class="cls-2"><path class="cls-3" d="M15.91,45.72c-4.24,2.23-6,7-8.49,12.72A50,50,0,0,0,32,64.69a50,50,0,0,0,24.56-6.24c-2.48-5.71-4.21-10.56-8.5-12.73C40.73,42,36.31,41.09,32,41S23.2,41.88,15.91,45.72Z"/><rect class="cls-4" x="25.53" y="43.07" width="14.06" height="15.61"/><path class="cls-5" d="M27.06,28.46h9.87V42.73c0,4.82-9.87,5.37-9.87,0Z"/><polygon class="cls-6" points="36.93 38.61 36.93 36.78 27.06 36.78 27.06 43.5 36.93 38.61"/><path class="cls-5" d="M32,11.5c20.9,0,12.43,27.61,0,27.61S11.1,11.5,32,11.5Z"/><path class="cls-7" d="M37.83,14.27C41.21,15.7,42.59,20,43.37,23c1.14,4.25.5,3.88,2,.65s-2.2-17.19-13-17.19S17.07,17.16,18.58,23,20.1,27.49,21,23C23.48,11.6,32.06,16.61,37.83,14.27Z"/><ellipse class="cls-8" cx="44.71" cy="24.18" rx="3.27" ry="1.41" transform="translate(11.39 62.58) rotate(-77.45)"/><ellipse class="cls-8" cx="19.29" cy="24.18" rx="1.41" ry="3.27" transform="translate(-4.79 4.77) rotate(-12.54)"/><path class="cls-9" d="M30.91,51.44,29.85,66.32c.71,0,1.42.07,2.15.07s1.42,0,2.12-.07L33.06,51.44l3.49-8.35c-3.26-.06-5.87-.05-9.12,0Z"/><path class="cls-10" d="M29.72,66.33c-2.19-4.08-5.63-8.33-8.93-7.89-.71-2.51-.1-4.47,1-6.71-1.29-.23-2.29-.59-3.91.25,2.24-4.77,4.61-8.36,8.57-9.7,0,2.34-.23,6.84,1.93,9.85,1.52,2.12,2.71,8.75,3.28,14.28Q30.67,66.39,29.72,66.33Z"/><path class="cls-3" d="M30.48,66.37c-2.07-4.35-5.85-9.66-8.91-9.66.07-2.67.28-3.94,1.72-5.95a9,9,0,0,0-5.59.81c1.29-3.34,5.66-8,8.72-9.3,0,2.34-.23,6.84,1.93,9.85,1.63,2.27,2.87,9.06,3.39,14.28Z"/><path class="cls-10" d="M34.28,66.33c2.19-4.08,5.63-8.33,8.93-7.89.71-2.51.1-4.47-1-6.71a5.66,5.66,0,0,1,4.11.37c-1.61-2.86-4.81-8.49-8.77-9.83,0,2.34,1.9,7.2-1.59,10-2.47,2-4.14,8.57-4.41,14.17H32C32.77,66.4,33.52,66.38,34.28,66.33Z"/><path class="cls-3" d="M33.52,66.37c2.07-4.35,5.85-9.66,8.91-9.66-.07-2.67-.28-3.94-1.72-5.95a9.28,9.28,0,0,1,5.67.89c-1.76-3.18-5.74-8-8.8-9.38,0,2.34.38,7.12-1.93,9.85-1.77,2.09-3.1,8.89-3.53,14.28Z"/><polygon class="cls-11" points="27.05 40.12 23.93 43.21 23.37 49.36 31.87 43.07 27.05 40.12"/><polygon class="cls-11" points="36.91 40.12 40.02 43.21 40.59 49.36 32.09 43.07 36.91 40.12"/><path class="cls-3" d="M27.63,31.63c1.14.9,7.59.85,8.73,0C35.37,36.35,28.94,36.49,27.63,31.63Z"/><circle class="cls-12" cx="27.6" cy="24.09" r="0.93"/><circle class="cls-12" cx="36.11" cy="24.09" r="0.93"/><path class="cls-13" d="M30.21,28.21a4.08,4.08,0,0,0,3.29,0,2.47,2.47,0,0,1-3.29,0Z"/><path class="cls-14" d="M24.2,20.76a4,4,0,0,1,5.2-1.11A11.14,11.14,0,0,0,24.2,20.76Z"/><path class="cls-14" d="M34.52,19.81a4,4,0,0,1,5.26.77A11.14,11.14,0,0,0,34.52,19.81Z"/></g><path class="cls-12" d="M42.32,53.48a.67.67,0,1,0,1.34.13,18.83,18.83,0,0,0-1.84-8.68c-1.38-3.11-3.31-5.66-4.88-6h0V40.3c1.12.55,2.54,2.64,3.66,5.16A17.48,17.48,0,0,1,42.32,53.48Z"/><circle class="cls-12" cx="42.45" cy="54.56" r="2.04"/><circle class="cls-15" cx="42.45" cy="54.56" r="1.32"/><path class="cls-12" d="M21.43,46.87c.23-.67.49-1.32.77-1.95,1.37-3.09,3.29-5.64,4.86-6v1.43c-1.12.57-2.52,2.64-3.63,5.15-.2.46-.4.93-.57,1.41Z"/><path class="cls-12" d="M19.81,50.09a25.74,25.74,0,0,0-.07,6.23c.33,2.3,1.23,4.37,3.39,4.62l-.06.56c-2.49-.29-3.52-2.57-3.88-5.09A26.28,26.28,0,0,1,19.25,50Z"/><path class="cls-16" d="M23.53,60.68l.75.09a.52.52,0,0,1,.45.57h0a.52.52,0,0,1-.57.45l-.75-.09a.52.52,0,0,1-.45-.57h0A.52.52,0,0,1,23.53,60.68Z"/><path class="cls-12" d="M23.51,50.51a25.74,25.74,0,0,1-1.35,6.08c-.84,2.16-2.19,4-4.35,3.72l-.06.56c2.49.29,4-1.7,4.94-4.08a26.27,26.27,0,0,0,1.39-6.22Z"/><path class="cls-16" d="M17.51,60l-.76-.09a.52.52,0,0,0-.57.45h0a.52.52,0,0,0,.45.57l.75.09A.52.52,0,0,0,18,60.6h0A.52.52,0,0,0,17.51,60Z"/><path class="cls-12" d="M19.82,53a.63.63,0,1,1-1.25-.14L19.14,48a2.76,2.76,0,0,1,5.49.63l-.57,4.91a.63.63,0,0,1-1.25-.14l.57-4.91a1.51,1.51,0,0,0-3-.35Z"/></svg>